<mxfile host="app.diagrams.net" modified="2024-02-29T20:28:43.740Z" agent="Mozilla/5.0 (Windows NT 10.0; Win64; x64) AppleWebKit/537.36 (KHTML, like Gecko) Chrome/122.0.0.0 Safari/537.36" version="23.1.6" etag="JtvJjaU8jXi54ZlI_jwU" type="github">
  <diagram name="Page-1" id="Ql2L-TOhpZfUqNlV-Htp">
    <mxGraphModel>
      <root>
        <mxCell id="0" />
        <mxCell id="1" parent="0" />
      </root>
    </mxGraphModel>
  </diagram>
</mxfile>
